<?xml version="1.0" encoding="UTF-8"?>
<svg id="Layer_1" data-name="Layer 1" xmlns="http://www.w3.org/2000/svg" viewBox="0 0 115.72 171.7">
  <defs>
    <style>
      .cls-1 {
        fill: #fff;
      }
    </style>
  </defs>
  <path class="cls-1" d="M23.57,86.31v33.08h33.08v-33.08H23.57ZM48.25,104.64c0,6.79-3.6,9.54-8.36,9.54s-7.93-2.55-7.93-9.44v-13.03h2.89v13.11c0,4.92,2.19,7.02,5.14,7.02,3.24,0,5.37-2.16,5.37-7.02v-13.11h2.89v12.93Z"/>
  <path class="cls-1" d="M58.7,86.31v33.08h33.08v-33.08h-33.08ZM83.54,113.89h-2.89l-7.01-11.21c-1.52-2.37-2.89-4.83-4.1-7.37l-.1.03c.17,2.8.2,5.44.2,9.11v9.44h-2.69v-22.09h3.15l7.05,11.19c1.48,2.3,2.79,4.71,3.93,7.19l.1-.03c-.26-2.95-.32-5.63-.32-9.05v-9.27h2.68v22.06Z"/>
  <path class="cls-1" d="M23.53,121.44v33.08h33.08v-33.08H23.53ZM46.76,145.92c-2.1,2.07-5.51,3.17-9.8,3.17-1.74.03-3.47-.06-5.2-.25v-21.73c2.02-.3,4.05-.46,6.09-.46,4.1,0,7.01.92,8.94,2.72,2,1.81,3.15,4.4,3.15,7.97s-1.16,6.56-3.19,8.59Z"/>
  <path class="cls-1" d="M37.52,146.8c-.96.03-1.93-.01-2.88-.14v-17.46c1.1-.21,2.22-.31,3.34-.29,6.03,0,8.98,3.25,8.94,8.52,0,5.97-3.31,9.41-9.4,9.38Z"/>
  <path class="cls-1" d="M37.52,146.8c-.96.03-1.93-.01-2.88-.14v-17.46c1.1-.21,2.22-.31,3.34-.29,6.03,0,8.98,3.25,8.94,8.52,0,5.97-3.31,9.41-9.4,9.38Z"/>
  <path class="cls-1" d="M58.7,121.41v33.08h33.08v-33.08h-33.08ZM81.04,137.87c-1.5,1.6-3.95,2.4-6.75,2.4-.77.03-1.54-.04-2.3-.2v8.85h-2.85v-21.78c1.81-.32,3.64-.48,5.48-.46,2.82,0,4.88.66,6.19,1.84.64.58,1.15,1.29,1.49,2.09.34.8.5,1.66.47,2.53,0,1.99-.59,3.56-1.74,4.73Z"/>
  <path class="cls-1" d="M74.36,138.11c-.79.02-1.59-.06-2.36-.23v-8.58c.89-.16,1.79-.24,2.69-.23,3.15,0,5.2,1.4,5.2,4.36s-2.05,4.68-5.52,4.68Z"/>
  <path class="cls-1" d="M23.57,15.98v68.25h68.23V15.98H23.57ZM82.1,51.51c-.96,1.35-2.11,2.62-2.99,4,.1-1.09.23-2.44-.2-3.47-.81-2.24-1.34-4.57-1.6-6.94v-.94c.56,2.5,3.01,4.22,2.85,7.02,0,.63-.09,1.25-.28,1.85l.04.05.11-.13c.36-1.37.54-2.82,1.11-4.1.8-1.84,1.81-3.7,1.4-5.93,1.26,2.64.9,6.14-.44,8.6ZM80.58,37.35c.81,1.18,1.31,2.55,1.45,3.97.14,1.43-.08,2.86-.65,4.18-.44,1.08-.75,2.21-.92,3.36-.08-.2-.1-.47-.17-.7-.64-2.45-2.96-4.19-3.91-6.5-.31-.76-.55-1.55-.7-2.35,1.02,1.88,3.53,2.85,4.21,4.93.28.53.26,1.2.43,1.75.02,0,.04,0,.05-.02.01-.01.02-.03.03-.05-.27-2.15-.24-4.34.08-6.48-.02-1.15-.13-2.25-.76-3.14.4.24.58.69.86,1.05ZM79.45,36.93c.42,1.91-.19,3.77.2,5.7-1.04-2.05-3.25-3.01-4.76-4.65-.82-.97-1.33-2.15-1.48-3.41.87,2.1,3.22,2.57,4.56,4.33.45.4.6.98.89,1.44l.04-.05c-.78-1.65-1.04-3.52-1.57-5.28-.29-.81-.83-1.51-1.53-2,1.75.38,3.28,2.22,3.65,3.91ZM74.72,32.54c1.34,1.2,1.94,2.74,2.33,4.34l.22.51c-1.96-1.42-3.63-3.2-4.93-5.24l-1.51-1.53c1.33.58,2.76.91,3.89,1.93h0ZM49.43,31.07c2.58-1.26,5.4-1.93,8.27-1.96,3.43.02,6.79,1.01,9.68,2.84s5.22,4.45,6.7,7.55c1.95,3.97,2.38,8.52,1.2,12.79-1.25,4.86-5.34,9.78-10.1,11.79-5.36,2.63-12.99,1.97-17.77-1.46-6.65-4.55-9.37-12.39-7.36-20.15,1.22-4.61,4.89-9.26,9.37-11.39ZM44.17,30.89c-1.33,1.17-2.25,2.67-3.25,4.04-.89,1.1-2.03,1.83-3.04,2.77.55-1.13.57-2.47,1.34-3.51,1.1-1.92,3.14-2.59,4.95-3.3ZM36.86,34.97c.6-.78,1.45-1.34,2.4-1.6-1.79,1.23-1.68,3.45-2.25,5.3-.18.68-.5,1.31-.66,2l.05.04c.33-.82.84-1.57,1.48-2.18,1.28-1.2,3.2-1.92,3.8-3.66-.03,2.43-2.06,4.34-4,5.7-.82.66-1.49,1.48-2,2.4-.04-.61.1-1.23.05-1.88-.22-2.11-.38-4.53,1.12-6.11ZM33.22,42.22c-.06-2.15.83-3.9,2.09-5.5.04,0,.06-.06.11-.05-1.38,2.09-.24,4.75-.3,7.14l-.18,2.45s.02.09.09.06c.07-.28.12-.56.15-.84.34-1.97,2.03-3.37,3.54-4.72.32-.33.58-.71.76-1.13-.14,1-.42,1.97-.84,2.88-1.17,2.25-3.32,4.12-3.71,6.71-.19-2.47-1.89-4.35-1.71-7ZM32.17,45.27c.12-.68.31-1.35.57-2-.56,2.84,1.35,4.88,1.98,7.35.26.92.33,1.91.7,2.77.04,0,.06,0,.09-.05-.94-2.6.42-5.02,1.77-7.07.31-.57.54-1.18.68-1.81.14,1.2-.15,2.55-.33,3.77-.32,1.56-.8,3.05-1.24,4.56-.23.99-.25,2.01-.06,3.01l-.14-.11c-1-1.83-2.96-3.26-3.53-5.26-.57-1.66-.73-3.44-.48-5.18ZM32.08,50.82c.22,3.01,3.46,4.6,4.96,7.09.32.54.7,1.04,1.14,1.5-.08-.32-.37-.59-.48-.92-.52-1.11-.72-2.34-.57-3.55.14-1.54.8-2.97.55-4.58,1.31,2.85.92,6.39,1.65,9.48.19.67.58,1.27.84,1.92-2.71-1.85-6.39-3.6-7.59-6.99-.54-1.16-.6-2.61-.49-3.94ZM33.7,57.73c1.51,3.41,5.29,3.7,7.82,5.78.44.41.94.75,1.48,1.01l.02-.03c-.64-.52-1.2-1.13-1.66-1.81-1.48-2.06-.96-4.96-2.07-7.19,1.02,1.15,1.87,2.45,2.54,3.84.91,2.24,1.25,4.76,3.36,6.46-2.28-.75-4.94-.54-6.94-1.94-2.17-1.33-4.13-3.61-4.54-6.12ZM37.58,64.12c2.42,2.76,6.39,1.84,9.59,2.55.44.13.9.19,1.35.18-.4-.25-.92-.22-1.34-.44-2.53-.89-2.9-3.62-4.27-5.47,1.75,1.16,3.22,2.74,4.85,4.26,1.16,1.02,2.56,1.49,4.03,1.79-.35.13-.8.09-1.2.19-2.64.66-5.59,1.72-8.39.76-1.97-.64-3.63-2.01-4.62-3.84v.02ZM70.44,70.54c-2.73,1.02-5.57-.04-7.71-1.66-.84-.55-1.64-1.35-2.75-1.28-.38-.02-.76.02-1.14.11,2.13,1,4.07,2.35,5.75,4-.32.34-.67.66-1.04.95-1.69-1.83-3.6-3.6-5.67-4.61-.42.1-.81.26-1.17.5-1.8,1.1-3.38,2.52-4.68,4.18l-1.09-.9c1.67-1.71,3.63-3.1,5.78-4.12-2.07-.65-3.42,1.08-5,1.97-1.83,1.27-4.47,1.87-6.69,1-1.25-.43-2.35-1.19-3.2-2.2,1.75,1.2,4.35,1.33,6.33.55,2.67-1.16,5.43-2.62,8.64-1.92.5,0,1,.51,1.47.08,2.41-.57,4.95-.25,7.14.9l2.12.84c1.97.73,4.51.53,6.19-.68-.86,1.05-2,1.85-3.28,2.29v.02ZM73.37,67.74c-3.07,1.15-6.15-.26-9.08-.74l-.56-.07c1.4-.32,2.77-.74,3.88-1.75,1.64-1.6,3.11-3.2,4.94-4.46-1.35,1.74-1.49,4.21-3.73,5.33-.56.36-1.25.43-1.83.7.82,0,1.56-.28,2.37-.36,3-.47,6.43,0,8.54-2.55-.78,1.72-2.73,3.21-4.52,3.84v.04ZM75.07,64.63c-1.56.42-3.23.56-4.76,1.07,2.57-2.21,2.43-5.63,4.15-8.23.51-.77,1.05-1.5,1.64-2.21-1.04,2.1-.59,4.82-1.79,6.86-.49.84-1.12,1.59-1.85,2.23.24,0,.45-.22.66-.36,1.96-1.94,4.5-2.49,6.61-4.07.87-.65,1.56-1.51,2-2.51-.41,3.19-3.62,6.21-6.63,7.18l-.02.04ZM78.93,59.12c-1.2.8-2.44,1.53-3.6,2.43v-.1c1.79-2.97.91-7.03,2-10.29l.4-1.09c-.23,2.02.65,3.74.6,5.78-.07,1.18-.45,2.32-1.12,3.3h.11c.88-1.14,1.56-2.36,2.58-3.46,1.58-1.53,3.2-3.09,3.4-5.2.55,3.48-1.42,6.58-4.37,8.58v.04Z"/>
  <path class="cls-1" d="M57.17,45.07c-.14.19-.31.34-.51.46-.2.12-.42.19-.65.22-.12.14-.09.46-.37.44-.09.2-.4.32-.28.61-.09.34-.14.69-.16,1.05-.54.33-.4-.45-.65-.61l-.1.15c-.1.03-.18-.04-.26-.11-.04-.03-.09-.04-.14-.04s-.1.01-.14.04c-.12.2-.3.36-.26.64-.05.16-.33.11-.29.28.31-.01.62-.05.92-.12.21.05.4-.1.59-.11.07.04.16.11.13.22h.09c.07-.05.12-.11.15-.19.03-.08.02-.16,0-.24,0-.19.23-.19.36-.25.12.06.04.17.06.27.4.15-.1.45-.16.67-.06.22,0,.57-.34.51-.03,0-.06-.03-.08-.06-.02-.03-.02-.06-.01-.1h-.05c0,.08.03.16.07.23.04.07.11.13.18.17.25-.21.26-.56.63-.61.19-.2-.08-.51.2-.67.47,0,.98-.21,1.35.17-.03.17-.09.24.05.38-.07.22-.18.43-.33.61.02.06.02.13,0,.19-.02.06-.05.12-.1.16-.12.56-.76.29-1.13.48.58.42,1.29.62,2,.54.4,0,.22-.5.4-.72.12-.64.71-.2,1.07-.38.15-.26.25-.55.3-.84-.11-.07-.19-.18-.23-.3-.04-.12-.05-.26-.01-.38-.15-.21-.14-.6-.48-.63-.02-.04-.02-.08-.02-.11,0-.04.03-.07.06-.1,0-.2.19-.27.24-.4-.21-.14-.15-.44-.14-.61-.36.1-.4-.36-.66-.46-.06-.21-.29-.24-.47-.28-.44.21-.51-.33-.84-.46-.04-.1-.11-.24,0-.32.11-.08.4,0,.57-.03l-.16-.08c-.14-.16-.46-.06-.65,0,.19.19.11.52.22.74Z"/>
  <path class="cls-1" d="M58.09,36.42c.35-.05.7-.04,1.05.04,1.77.24,3.45.91,4.89,1.97-.19-.17-.33-.4-.4-.66.01-.02.03-.03.05-.03.02,0,.04,0,.06,0,0-.28-.28-.43-.32-.68.02-.03.05-.06.09-.07.04-.01.08-.02.11,0,.3.28.56.6.8.94.2-.08.36.05.51.15.26.16.1.5.3.68.04.54.69.84.66,1.37,0,.12.16.03.22.09l.54.67s-.03.06-.04.1c0,.04,0,.07,0,.11,0,.03.02.07.05.1.02.03.05.05.08.07.24.12.4-.2.62-.15.35.2-.06.44-.02.66.14,0,.31-.11.42.03.04.2-.16.33-.25.46,0,.2.16.16.31.2.04,0,.07.01.11.03.03.02.06.05.08.08.02.03.03.07.04.11,0,.04,0,.08,0,.11.45.47-.14.98.08,1.48.05.16.05.32,0,.48-.04.16-.13.3-.25.41,0,.4-.36.65-.5.98l-.46.09c-.25.24.21.55-.04.7l1.02.02-.11-.11c-.08-.21-.1-.44-.08-.66.02-.22.1-.44.22-.63.1-.36.26-.7.48-1,.06,0,.18-.14.24,0,.03.32-.02.65-.16.94.3.4.26.96.28,1.48.9-.06,1.79-.07,2.67-.06l-.08-.18c-.1-1.63-.51-3.23-1.2-4.71-.19,0-.33.16-.54.11-.04-.01-.07-.04-.09-.07-.02-.03-.03-.07-.03-.11-.31-.39-.64-.76-1-1.11-.47.04-.68-.49-1.09-.55-.37-.15-.12-.76-.66-.59-.14-.05-.26-.13-.36-.23-.1-.11-.17-.24-.21-.38.02-.24,0-.48-.1-.71-.09-.22-.23-.42-.42-.58-.33-.12-.46.32-.8.24-.18-.09-.1-.33-.16-.48-.06-.15-.22-.24-.19-.42.43-.56-.52-.55-.31-1.11-.06-.4-.46-.56-.67-.88-1.39-.65-2.87-1.07-4.4-1.26-.4-.06-.76.03-1.09-.15l.09.17c-.03.85.03,1.75-.06,2.54Z"/>
  <path class="cls-1" d="M56.87,58.58c-2.13-.12-4.18-.89-5.87-2.2.06.22.34.36.26.63-.16.25-.47.26-.72.25-.52-.09-.9.31-1.39.36-.45.14-.6-.4-1.01-.36,2.53,2.2,5.42,3.6,8.79,3.77l.26.17-.11-.31v-2.4l-.21.09Z"/>
  <path class="cls-1" d="M44.09,48.09l.2,1.67c.08.65.36,1.27.34,1.9.1-.14.04-.4.28-.44-.1-.2.19-.38.03-.55.02-.45.2-.88.52-1.2.46,0,.5-.63.96-.66.24,0,.38.31.48.4-.12-.2-.2-.41-.23-.64-.03-.23-.02-.46.04-.68l-.2.09c-.85.03-1.69.02-2.54-.05l.11.14Z"/>
  <path class="cls-1" d="M47.63,38.01v.17l-.98,1.25c-1.6,2.21-2.37,4.76-2.6,7.55l2.49-.05.24.09c-.1-.06-.08-.17-.11-.26.15-2.54,1.17-4.96,2.9-6.83-.69-.59-1.34-1.23-1.93-1.92Z"/>
  <path class="cls-1" d="M61.43,53.83c.33.17.72.18,1.07.33.31.08.52.46.9.34.33-.18.88.11,1.1-.24-.04-.34.26-.58.4-.87l.1-.03c.18.19.18.48.26.68.26-.27.46-.58.68-.86.62-.84,1.07-1.79,1.33-2.8-.24.01-.48.05-.72.12-.26,0-.58.14-.8-.04-.08-.07-.14.04-.12.11-.1.14-.19.31-.4.24-.21-.06-.16-.24-.22-.37,0,.1-.01.19-.04.28-.16.19-.29.39-.4.61-.19.21-.5.14-.7.31-.04.44-.52.34-.8.48,0,.05.04.06.07.11.07.03.14.03.21.02s.14-.06.19-.11c.4.1.3-.4.52-.54.19-.03.37-.19.57-.06.19.27.27.6.22.92-.22.22-.11.57-.26.83.04.3-.33.44-.28.74-.07.06-.15.1-.23.13-.09.03-.18.04-.27.02-.73-.28-1.5-.45-2.27-.52-.03.01-.06.03-.08.06-.02.03-.02.06-.02.1Z"/>
  <path class="cls-1" d="M48.14,49.35c.02-.16-.22-.21-.19-.37.17-.34,0-.88.46-1.03-.14.05-.3.07-.45.06-.15-.01-.3-.06-.43-.14l.14.22c0,.6.26,1.17.13,1.78.12-.18.12-.41.35-.52Z"/>
  <path class="cls-1" d="M61.41,50.49c0,.16.05.31.15.43.35-.05.2.44.53.4.18-.06,0-.21.06-.33-.05-.28-.32-.3-.5-.47-.02-.05,0-.1.04-.14-.13-.08-.19,0-.28.11Z"/>
  <path class="cls-1" d="M65.25,58.85l.13-.17c.57-.41,1.1-.86,1.6-1.35h.07c-.11-.04-.25.07-.38,0-.26-.12-.3-.35-.3-.61l-1.12-1.15-.06-.17c-.09.2-.23.38-.4.52,0,.15-.04.37.13.46.36.12.83.36.92.8-.15.4-.91.76-.44,1.2.16.22-.21.3-.15.49Z"/>
  <path class="cls-1" d="M52.48,49.48c-.09-.05-.1-.04-.17.04-.04.01-.09.01-.14,0,0-.52-.58-.21-.8-.48.26.47.4,1.01.65,1.48.17.4.53.75.7,1.16.23-.33.49-.63.78-.91,0-.06,0-.13,0-.19-.02-.06-.04-.12-.08-.17-.08-.19,0-.46-.15-.63-.23.08.08.32,0,.46-.02.01-.04.02-.07.02-.02,0-.05,0-.07-.02s-.04-.03-.05-.05c-.01-.02-.02-.04-.02-.07-.1-.02-.2-.07-.27-.14-.08-.07-.14-.16-.17-.26.14-.12-.08-.16-.13-.25Z"/>
  <path class="cls-1" d="M68.04,37.35c.2.04.25.27.4.4.66.35.83,1.06,1.41,1.46.33.69,1.08,1.2,1.11,2,.84,1.77,1.31,3.69,1.38,5.65l-.07.11c.08,0,.15-.03.21-.08l2.63-.04c-.17-.26-.1-.63-.15-.94-.35-4.05-2.07-7.51-4.8-10.57-.56.69-1.17,1.34-1.81,1.95l-.32.07Z"/>
  <path class="cls-1" d="M58.75,44.09c.21.12.32-.1.5-.14.24.06.45.2.6.4.16.07.32-.02.46-.08.1-.76,1.05-.64,1.33-1.35l-.17.07c-.07-.1-.25-.06-.24-.22.15-.18.34-.33.55-.44-.8-.53-1.67-.94-2.59-1.2-.37-.05-.73-.13-1.09-.22.17.52,0,1.28.13,1.88l.65.22c.2-.32.61-.4.8-.68.12-.1.26,0,.35.11.02.26-.02.52-.12.76-.24.49-.83.55-1.15.91Z"/>
  <path class="cls-1" d="M68.44,50.2c-.34,1.24-.88,2.41-1.6,3.47-.3.4-.6.91-.98,1.11l.84.73s0-.12.03-.18c.03-.06.05-.24.19-.22.4,0,.4.4.64.64-.05.35.26.62.15.94,2.22-2.36,3.51-5.43,3.65-8.67l.12-.14c-.8.08-1.68.02-2.52.04l-.2-.06c0,.55-.03,1.1-.12,1.64l.3.32c.04.06.05.14.04.21-.01.07-.05.14-.1.19-.06.05-.14.07-.21.07s-.15-.03-.21-.08Z"/>
  <path class="cls-1" d="M66.17,47.78l.28.28c.28.2.09.6.4.77.31.17.48.59.64.9.04-.08.06-.17.08-.26.12-.5.1-1.06.26-1.55-.56.08-1.12.04-1.66-.12Z"/>
  <path class="cls-1" d="M60.99,37.96c-.95-.3-1.94-.51-2.93-.62l.09.2v2.46l.24-.04c1.48.16,2.89.73,4.06,1.65l.06.19c.4-.57,1.03-1.06,1.51-1.6l.46-.27-.22-.09c-.97-.82-2.07-1.46-3.27-1.89Z"/>
  <path class="cls-1" d="M66.25,42.15c-.35-.57-.75-1.11-1.2-1.6l-.04.11c-.84.87-1.76,1.77-2.55,2.66.05.11.14.2.24.26.04-.22.16-.4.18-.64.21-.3.54-.11.82-.05.44-.1.85.1,1.29.09.33.16.36.58.66.75.08.12.02.25-.09.34.09.68.4-.18.77,0,.14.06.32.04.43.19.06.28.4.23.4.5-.03.14-.17.17-.27.25.09.27-.28.44-.15.74.53.1.55-.51.8-.8-.1-.48-.27-.94-.51-1.37-.3-.06-.48-.4-.8-.48-.57-.25.1-.62.03-.96Z"/>
  <path class="cls-1" d="M60.39,52.34c.22-.22.68-.22.7-.54-.32-.05-.48.12-.7.3-.03.07-.13.2,0,.24Z"/>
  <path class="cls-1" d="M57.1,62.12l.09-.14-.28.07c-3.47-.16-6.77-1.58-9.28-4l-.03.11-1.87,1.88c2.71,2.44,6.08,4.02,9.69,4.54.61.04,1.21.11,1.81.22l-.14-.22v-2.47Z"/>
  <path class="cls-1" d="M58.72,54.05c.24.04.07.3.24.4.37-.12.66.32.96.04,0-.43.47-.4.73-.5.4-.25.88-.57.83-1.12l-.07-.08c-.28,0-.43.22-.63.4-.2.18-.4-.27-.6-.17,0,.04.06.06.09.08.03.04.05.08.05.13s-.02.1-.05.13c-.31.28-.45-.14-.75-.11v.11c0,.06,0,.16-.1.12-.19-.3-.56-.19-.74-.45-.11-.06-.22,0-.3.09-.07.14-.36,0-.28.22-.23.08-.25.32-.4.47-.28-.05-.4.27-.68.26.03.05,0,.14.08.15.17.07.35.09.53.06.28-.46.71-.09,1.09-.26Z"/>
  <path class="cls-1" d="M47.05,57.4c-.32-.26-.6-.55-.85-.88-.16-.04-.31-.11-.44-.21-.13-.1-.24-.23-.32-.37-.09-.1,0-.28-.11-.36l-.11.14c-.32.15-.43-.18-.65-.31-.28-.16-.14-.69-.53-.6-.14,0-.19-.17-.28-.26-.35.03-.44-.36-.64-.55-.04.08,0,.19-.11.24-.36.08-.49-.36-.74-.55-.06.03-.11.11-.2.09-.11-.1-.2-.21-.27-.35-.06-.13-.1-.28-.11-.42-.3-.34-.16-.87-.11-1.28.06-.11.22-.17.18-.31.08-.19.28-.21.48-.22.07.04.14.1.18.17.12-.08.4,0,.28-.26.17-.12.38-.2.59-.22.11.2.25.39.4.56l-.12-.2c-.24-.91-.38-1.83-.44-2.77,0-.06-.12-.08-.05-.14v.03c0-.17,0-.34.03-.51l-.24.09h-2.53c.13,2.8.89,5.53,2.23,7.99.65,1.2,1.6,2.28,2.4,3.4l1.81-1.87.27-.11Z"/>
  <path class="cls-1" d="M55.3,55.18c.19-.2.42-.35.68-.44-.8.16-1.52-.4-2.21-.74-.4-.29-.9-.53-1.14-.96-.54.67-1.15,1.29-1.81,1.85.28,0,.44.33.68.47,1.36,1.14,3.06,1.68,4.64,2.07l-.43-.2c-.33-.37-.8-.8-.8-1.33.32-.12.28-.48.39-.72Z"/>
  <path class="cls-1" d="M58.14,61.14c.67-.23,1.45-.19,2.18-.31-.15-.03-.29-.12-.4-.24-.43-.03-.63-.47-.76-.8-.06-.24.1-.44.2-.65-.18-.38-.75-.1-1.07-.24-.09-.08-.16-.18-.28-.2l.13.2c.05.74.05,1.49,0,2.23Z"/>
  <path class="cls-1" d="M67.76,57.87c-.26.5-.8.8-1.25,1.2-.59.59-1.55.72-1.86,1.57-.32.29-.42.74-.87.91-.17.44-.63.4-.9.72-.76.68-1.25-.43-1.95-.57l-1.39.24c-.48,0-.96.17-1.42,0,.07.95.07,1.91,0,2.86l.17-.11c4.26-.17,8.31-1.87,11.41-4.8l-1.91-1.83-.04-.2Z"/>
  <path class="cls-1" d="M72.38,47.91l-.15-.11.09.25c-.13,2.92-1.14,5.73-2.89,8.08-.3.44-.66.83-1.07,1.17.73.61,1.4,1.28,2.03,2l.07-.14c2.77-3.05,4.38-6.99,4.54-11.11l.11-.22-.14.06h-2.59Z"/>
  <path class="cls-1" d="M43.16,47l-.05-.36c.15-2.8,1.1-5.51,2.73-7.79.4-.46.71-1.04,1.22-1.39-.59-.56-1.2-1.2-1.83-1.81l-.06-.25c-2.56,2.74-4.19,6.21-4.67,9.93-.1.55-.03,1.11-.14,1.67.93-.08,1.87-.08,2.81,0Z"/>
  <path class="cls-1" d="M50.24,40.62c-1.25,1.43-2.09,3.17-2.45,5.04-.1.44-.04.94-.22,1.35.37-.11.76-.13,1.14-.05-.2-.11-.04-.37-.16-.52-.03-.22-.06-.51.16-.66-.02-.37.37-.56.4-.9.1-.4.54-.13.74-.33.14-.07,0-.2,0-.3.18-.25.46-.24.68-.37.15-.26.36-.47.61-.64.54,0,.56-.75,1.07-.77-.7-.58-1.36-1.21-1.98-1.87Z"/>
  <path class="cls-1" d="M53.42,52.32c.94.79,2.08,1.31,3.29,1.51.06-.24-.04-.55.09-.76.13-.21.33-.19.52-.16.03,0,.05-.01.07-.03.02-.02.04-.04.05-.06.01-.02.02-.05.01-.08,0-.03-.01-.05-.03-.07-.26-.05-.14-.34-.24-.5,0-.09.16-.07.13-.19-.18-.15.09-.31-.06-.46.04-.03.08-.08.12-.12-.55.23-1.13-.1-1.62-.32-.24-.14-.58-.27-.64-.57-.41.64-1.15,1.22-1.69,1.81Z"/>
  <path class="cls-1" d="M49.08,47.95l-.07.48c-.11.28-.46.07-.63.26-.16.19,0,.37.11.52-.25.58.58.77.56,1.29.26.33-.04.8.33,1.09.08.59-.08,1.39.44,1.85l.09.57c.1.4-.47.29-.4.64.11-.05.14.09.14.13.72-.85,1.5-1.65,2.33-2.4l-.34-.35c-.66-.94-1.13-2-1.4-3.12l-.26-.13c-.06.26-.1.53-.13.8l-.09.11c-.19,0-.31-.16-.47-.26-.04-.1-.14-.26,0-.34.08,0,.16.02.22.06.08-.1.04-.24.09-.37.02-.22-.17-.4-.03-.61.17,0,.3.19.37.31.18.06.31-.09.46-.15,0-.16.22-.36,0-.46.09-.35.09-.72,0-1.07-.1-.3-.43-.25-.68-.22-.74.24.12.8-.06,1.24-.11.28-.38.03-.58.13Z"/>
  <path class="cls-1" d="M54.23,49.75c-.07.23-.2.44-.38.6h.05c.22-.16.38-.44.65-.45l-.33-.15Z"/>
  <path class="cls-1" d="M57.1,41c-1.47.13-2.85.78-3.88,1.83h.2c.22.22.58.17.74.47.08.16-.16.14-.14.28.05.04.11.04.14.11.17.06.14-.1.2-.17.22-.22.26.22.48.22.04-.03.08-.05.12-.06.04-.01.09-.02.13-.01.04,0,.09.02.13.04.04.02.07.05.1.09.15-.13.46,0,.5-.24.28-.3.13-.76.54-.96.15.08,0,.22.05.35.28.12.6-.24.82.05-.16-.65-.2-1.32-.14-1.99Z"/>
  <path class="cls-1" d="M47.75,36.78l.04-.13c2.53-2.37,5.84-3.76,9.31-3.89l-.08-.22-.03-2.19.08-.25c-3.54.14-6.95,1.35-9.8,3.45-.56.4-1.05.96-1.6,1.29h.08c.72.58,1.39,1.22,2,1.92Z"/>
  <path class="cls-1" d="M57.06,33.8c-2.54.13-5,.95-7.11,2.37-.57.4-1.08.9-1.67,1.25.68.42,1.23,1.13,1.84,1.7l.06.17c1.52-1.42,3.41-2.38,5.45-2.76.48-.11.97-.15,1.45-.11-.08-.87-.09-1.75-.04-2.62Z"/>
  <path class="cls-1" d="M56.96,37.4c-2.24.19-4.37,1.08-6.07,2.56.69.48,1.31,1.25,1.94,1.81.05-.06.09-.13.14-.2.83-.65,1.77-1.13,2.77-1.43.45-.04.9-.26,1.37-.16-.1-.89-.1-1.79,0-2.68l-.15.11Z"/>
  <path class="cls-1" d="M50.64,55.92l-.04-.06.04.11v-.05Z"/>
  <path class="cls-1" d="M59.84,30.21c-.59-.03-1.19-.11-1.77-.22.09.83.1,1.67.03,2.51,0-.08.03-.15.08-.21.13-.08.23.04.28.12.05.09.07.35-.04.4.11,0,.16-.06.26-.06,2.02.15,3.98.74,5.74,1.75v-.04c.35-.18.8-.4,1.17-.09.44-.16.52.37.87.44.24.12.45.3.62.51.17.21.29.46.35.72.08.16.34.28.37.46.29-.62.87-1.06,1.37-1.6l.31-.13c-2.65-2.51-6.03-4.1-9.65-4.54ZM61.59,32.07c-.15.16-.34.27-.55.33-.21.05-.44.05-.64-.02-.6.12-1.44.46-1.92-.15-.02-.05-.08-.11-.02-.16.08-.14.29-.09.4-.05l1.31-.56c.52.04,1.11.11,1.42.54v.06ZM66.73,34.6c-.49.13-.54-.42-.92-.56-.05-.08-.08-.17-.06-.26.17-.21.34.14.52-.04.09.02.17.06.24.11.07.06.12.13.16.21-.04.2.2.38.06.54Z"/>
</svg>